<mxfile host="app.diagrams.net" agent="Mozilla/5.0 (Windows NT 10.0; Win64; x64) AppleWebKit/537.36 (KHTML, like Gecko) Chrome/129.0.0.0 Safari/537.36" version="24.7.17">
  <diagram id="C5RBs43oDa-KdzZeNtuy" name="Page-1">
    <mxGraphModel dx="1669" dy="844" grid="0" gridSize="10" guides="1" tooltips="1" connect="1" arrows="1" fold="1" page="0" pageScale="1" pageWidth="827" pageHeight="1169" math="0" shadow="0">
      <root>
        <mxCell id="WIyWlLk6GJQsqaUBKTNV-0" />
        <mxCell id="WIyWlLk6GJQsqaUBKTNV-1" parent="WIyWlLk6GJQsqaUBKTNV-0" />
        <mxCell id="q6523NSPzNfPJhVcxAXO-35" style="edgeStyle=orthogonalEdgeStyle;rounded=0;orthogonalLoop=1;jettySize=auto;html=1;exitX=0.5;exitY=0;exitDx=0;exitDy=0;entryX=0.5;entryY=1;entryDx=0;entryDy=0;endArrow=none;endFill=0;" parent="WIyWlLk6GJQsqaUBKTNV-1" source="XJCtLHiwcG__dmZvd9Cn-1" target="XJCtLHiwcG__dmZvd9Cn-8" edge="1">
          <mxGeometry relative="1" as="geometry" />
        </mxCell>
        <mxCell id="XJCtLHiwcG__dmZvd9Cn-1" value="Ativo" style="swimlane;fontStyle=1;align=center;verticalAlign=top;childLayout=stackLayout;horizontal=1;startSize=26;horizontalStack=0;resizeParent=1;resizeParentMax=0;resizeLast=0;collapsible=1;marginBottom=0;whiteSpace=wrap;html=1;" parent="WIyWlLk6GJQsqaUBKTNV-1" vertex="1">
          <mxGeometry x="324" y="605" width="242" height="190" as="geometry" />
        </mxCell>
        <mxCell id="XJCtLHiwcG__dmZvd9Cn-2" value="+ id: int" style="text;strokeColor=none;fillColor=none;align=left;verticalAlign=top;spacingLeft=4;spacingRight=4;overflow=hidden;rotatable=0;points=[[0,0.5],[1,0.5]];portConstraint=eastwest;whiteSpace=wrap;html=1;" parent="XJCtLHiwcG__dmZvd9Cn-1" vertex="1">
          <mxGeometry y="26" width="242" height="26" as="geometry" />
        </mxCell>
        <mxCell id="XJCtLHiwcG__dmZvd9Cn-5" value="+ nome: string" style="text;strokeColor=none;fillColor=none;align=left;verticalAlign=top;spacingLeft=4;spacingRight=4;overflow=hidden;rotatable=0;points=[[0,0.5],[1,0.5]];portConstraint=eastwest;whiteSpace=wrap;html=1;" parent="XJCtLHiwcG__dmZvd9Cn-1" vertex="1">
          <mxGeometry y="52" width="242" height="26" as="geometry" />
        </mxCell>
        <mxCell id="q6523NSPzNfPJhVcxAXO-38" value="+ cotação: float" style="text;strokeColor=none;fillColor=none;align=left;verticalAlign=top;spacingLeft=4;spacingRight=4;overflow=hidden;rotatable=0;points=[[0,0.5],[1,0.5]];portConstraint=eastwest;whiteSpace=wrap;html=1;" parent="XJCtLHiwcG__dmZvd9Cn-1" vertex="1">
          <mxGeometry y="78" width="242" height="26" as="geometry" />
        </mxCell>
        <mxCell id="XJCtLHiwcG__dmZvd9Cn-33" value="+ código: string" style="text;strokeColor=none;fillColor=none;align=left;verticalAlign=top;spacingLeft=4;spacingRight=4;overflow=hidden;rotatable=0;points=[[0,0.5],[1,0.5]];portConstraint=eastwest;whiteSpace=wrap;html=1;" parent="XJCtLHiwcG__dmZvd9Cn-1" vertex="1">
          <mxGeometry y="104" width="242" height="26" as="geometry" />
        </mxCell>
        <mxCell id="XJCtLHiwcG__dmZvd9Cn-3" value="" style="line;strokeWidth=1;fillColor=none;align=left;verticalAlign=middle;spacingTop=-1;spacingLeft=3;spacingRight=3;rotatable=0;labelPosition=right;points=[];portConstraint=eastwest;strokeColor=inherit;" parent="XJCtLHiwcG__dmZvd9Cn-1" vertex="1">
          <mxGeometry y="130" width="242" height="8" as="geometry" />
        </mxCell>
        <mxCell id="KCBv_zXYVOr0lP9MTeKW-22" value="+ FazerSimulação(Acao, Data): bool" style="text;strokeColor=none;fillColor=none;align=left;verticalAlign=top;spacingLeft=4;spacingRight=4;overflow=hidden;rotatable=0;points=[[0,0.5],[1,0.5]];portConstraint=eastwest;whiteSpace=wrap;html=1;" vertex="1" parent="XJCtLHiwcG__dmZvd9Cn-1">
          <mxGeometry y="138" width="242" height="26" as="geometry" />
        </mxCell>
        <mxCell id="KCBv_zXYVOr0lP9MTeKW-10" value="+ obterAcao(int id): acao" style="text;strokeColor=none;fillColor=none;align=left;verticalAlign=top;spacingLeft=4;spacingRight=4;overflow=hidden;rotatable=0;points=[[0,0.5],[1,0.5]];portConstraint=eastwest;whiteSpace=wrap;html=1;" vertex="1" parent="XJCtLHiwcG__dmZvd9Cn-1">
          <mxGeometry y="164" width="242" height="26" as="geometry" />
        </mxCell>
        <mxCell id="XJCtLHiwcG__dmZvd9Cn-8" value="Ordem" style="swimlane;fontStyle=1;align=center;verticalAlign=top;childLayout=stackLayout;horizontal=1;startSize=26;horizontalStack=0;resizeParent=1;resizeParentMax=0;resizeLast=0;collapsible=1;marginBottom=0;whiteSpace=wrap;html=1;" parent="WIyWlLk6GJQsqaUBKTNV-1" vertex="1">
          <mxGeometry x="223" y="254" width="251" height="249" as="geometry" />
        </mxCell>
        <mxCell id="XJCtLHiwcG__dmZvd9Cn-13" value="&lt;div&gt;+id : int&lt;/div&gt;" style="text;strokeColor=none;fillColor=none;align=left;verticalAlign=top;spacingLeft=4;spacingRight=4;overflow=hidden;rotatable=0;points=[[0,0.5],[1,0.5]];portConstraint=eastwest;whiteSpace=wrap;html=1;" parent="XJCtLHiwcG__dmZvd9Cn-8" vertex="1">
          <mxGeometry y="26" width="251" height="26" as="geometry" />
        </mxCell>
        <mxCell id="XJCtLHiwcG__dmZvd9Cn-9" value="+ éCompra: bool&lt;div&gt;&lt;br&gt;&lt;/div&gt;" style="text;strokeColor=none;fillColor=none;align=left;verticalAlign=top;spacingLeft=4;spacingRight=4;overflow=hidden;rotatable=0;points=[[0,0.5],[1,0.5]];portConstraint=eastwest;whiteSpace=wrap;html=1;" parent="XJCtLHiwcG__dmZvd9Cn-8" vertex="1">
          <mxGeometry y="52" width="251" height="26" as="geometry" />
        </mxCell>
        <mxCell id="XJCtLHiwcG__dmZvd9Cn-12" value="+ valor: float&lt;div&gt;&lt;br&gt;&lt;/div&gt;" style="text;strokeColor=none;fillColor=none;align=left;verticalAlign=top;spacingLeft=4;spacingRight=4;overflow=hidden;rotatable=0;points=[[0,0.5],[1,0.5]];portConstraint=eastwest;whiteSpace=wrap;html=1;" parent="XJCtLHiwcG__dmZvd9Cn-8" vertex="1">
          <mxGeometry y="78" width="251" height="26" as="geometry" />
        </mxCell>
        <mxCell id="KCBv_zXYVOr0lP9MTeKW-2" value="+ criarGrupo(id_usuario): GrupoDeAções" style="text;strokeColor=none;fillColor=none;align=left;verticalAlign=top;spacingLeft=4;spacingRight=4;overflow=hidden;rotatable=0;points=[[0,0.5],[1,0.5]];portConstraint=eastwest;whiteSpace=wrap;html=1;" vertex="1" parent="XJCtLHiwcG__dmZvd9Cn-8">
          <mxGeometry y="104" width="251" height="33" as="geometry" />
        </mxCell>
        <mxCell id="XJCtLHiwcG__dmZvd9Cn-10" value="" style="line;strokeWidth=1;fillColor=none;align=left;verticalAlign=middle;spacingTop=-1;spacingLeft=3;spacingRight=3;rotatable=0;labelPosition=right;points=[];portConstraint=eastwest;strokeColor=inherit;" parent="XJCtLHiwcG__dmZvd9Cn-8" vertex="1">
          <mxGeometry y="137" width="251" height="8" as="geometry" />
        </mxCell>
        <mxCell id="KCBv_zXYVOr0lP9MTeKW-4" value="+ ObterOrdem(int id): Ordem" style="text;strokeColor=none;fillColor=none;align=left;verticalAlign=top;spacingLeft=4;spacingRight=4;overflow=hidden;rotatable=0;points=[[0,0.5],[1,0.5]];portConstraint=eastwest;whiteSpace=wrap;html=1;" vertex="1" parent="XJCtLHiwcG__dmZvd9Cn-8">
          <mxGeometry y="145" width="251" height="26" as="geometry" />
        </mxCell>
        <mxCell id="KCBv_zXYVOr0lP9MTeKW-5" value="+CriarOrdem(): bool" style="text;strokeColor=none;fillColor=none;align=left;verticalAlign=top;spacingLeft=4;spacingRight=4;overflow=hidden;rotatable=0;points=[[0,0.5],[1,0.5]];portConstraint=eastwest;whiteSpace=wrap;html=1;" vertex="1" parent="XJCtLHiwcG__dmZvd9Cn-8">
          <mxGeometry y="171" width="251" height="26" as="geometry" />
        </mxCell>
        <mxCell id="KCBv_zXYVOr0lP9MTeKW-6" value="+CancelarOrdem(int id): bool" style="text;strokeColor=none;fillColor=none;align=left;verticalAlign=top;spacingLeft=4;spacingRight=4;overflow=hidden;rotatable=0;points=[[0,0.5],[1,0.5]];portConstraint=eastwest;whiteSpace=wrap;html=1;" vertex="1" parent="XJCtLHiwcG__dmZvd9Cn-8">
          <mxGeometry y="197" width="251" height="26" as="geometry" />
        </mxCell>
        <mxCell id="KCBv_zXYVOr0lP9MTeKW-7" value="+ModificarOrdem(int id): bool" style="text;strokeColor=none;fillColor=none;align=left;verticalAlign=top;spacingLeft=4;spacingRight=4;overflow=hidden;rotatable=0;points=[[0,0.5],[1,0.5]];portConstraint=eastwest;whiteSpace=wrap;html=1;" vertex="1" parent="XJCtLHiwcG__dmZvd9Cn-8">
          <mxGeometry y="223" width="251" height="26" as="geometry" />
        </mxCell>
        <mxCell id="XJCtLHiwcG__dmZvd9Cn-22" value="Carteira" style="swimlane;fontStyle=1;align=center;verticalAlign=top;childLayout=stackLayout;horizontal=1;startSize=26;horizontalStack=0;resizeParent=1;resizeParentMax=0;resizeLast=0;collapsible=1;marginBottom=0;whiteSpace=wrap;html=1;" parent="WIyWlLk6GJQsqaUBKTNV-1" vertex="1">
          <mxGeometry x="-139" y="269" width="235" height="135" as="geometry" />
        </mxCell>
        <mxCell id="XJCtLHiwcG__dmZvd9Cn-26" value="+ Lista de Ordens: Array&amp;lt;Ordem&amp;gt;" style="text;strokeColor=none;fillColor=none;align=left;verticalAlign=top;spacingLeft=4;spacingRight=4;overflow=hidden;rotatable=0;points=[[0,0.5],[1,0.5]];portConstraint=eastwest;whiteSpace=wrap;html=1;" parent="XJCtLHiwcG__dmZvd9Cn-22" vertex="1">
          <mxGeometry y="26" width="235" height="26" as="geometry" />
        </mxCell>
        <mxCell id="XJCtLHiwcG__dmZvd9Cn-34" value="+ Lista de Ações: Array&amp;lt;Ação&amp;gt;" style="text;strokeColor=none;fillColor=none;align=left;verticalAlign=top;spacingLeft=4;spacingRight=4;overflow=hidden;rotatable=0;points=[[0,0.5],[1,0.5]];portConstraint=eastwest;whiteSpace=wrap;html=1;" parent="XJCtLHiwcG__dmZvd9Cn-22" vertex="1">
          <mxGeometry y="52" width="235" height="28" as="geometry" />
        </mxCell>
        <mxCell id="XJCtLHiwcG__dmZvd9Cn-24" value="" style="line;strokeWidth=1;fillColor=none;align=left;verticalAlign=middle;spacingTop=-1;spacingLeft=3;spacingRight=3;rotatable=0;labelPosition=right;points=[];portConstraint=eastwest;strokeColor=inherit;" parent="XJCtLHiwcG__dmZvd9Cn-22" vertex="1">
          <mxGeometry y="80" width="235" height="8" as="geometry" />
        </mxCell>
        <mxCell id="q6523NSPzNfPJhVcxAXO-36" value="+ criarGrupo(id_usuario): Grupo&lt;span style=&quot;color: rgba(0, 0, 0, 0); font-family: monospace; font-size: 0px; text-wrap: nowrap;&quot;&gt;%3CmxGraphModel%3E%3Croot%3E%3CmxCell%20id%3D%220%22%2F%3E%3CmxCell%20id%3D%221%22%20parent%3D%220%22%2F%3E%3CmxCell%20id%3D%222%22%20value%3D%22%2BCancelarOrdem(int%20id)%3A%20bool%22%20style%3D%22text%3BstrokeColor%3Dnone%3BfillColor%3Dnone%3Balign%3Dleft%3BverticalAlign%3Dtop%3BspacingLeft%3D4%3BspacingRight%3D4%3Boverflow%3Dhidden%3Brotatable%3D0%3Bpoints%3D%5B%5B0%2C0.5%5D%2C%5B1%2C0.5%5D%5D%3BportConstraint%3Deastwest%3BwhiteSpace%3Dwrap%3Bhtml%3D1%3B%22%20vertex%3D%221%22%20parent%3D%221%22%3E%3CmxGeometry%20x%3D%22223%22%20y%3D%22451%22%20width%3D%22251%22%20height%3D%2226%22%20as%3D%22geometry%22%2F%3E%3C%2FmxCell%3E%3C%2Froot%3E%3C%2FmxGraphModel%3E&lt;/span&gt;DeAções" style="text;strokeColor=none;fillColor=none;align=left;verticalAlign=top;spacingLeft=4;spacingRight=4;overflow=hidden;rotatable=0;points=[[0,0.5],[1,0.5]];portConstraint=eastwest;whiteSpace=wrap;html=1;" parent="XJCtLHiwcG__dmZvd9Cn-22" vertex="1">
          <mxGeometry y="88" width="235" height="21" as="geometry" />
        </mxCell>
        <mxCell id="KCBv_zXYVOr0lP9MTeKW-8" value="+ visualizarCarteira(): Carteira" style="text;strokeColor=none;fillColor=none;align=left;verticalAlign=top;spacingLeft=4;spacingRight=4;overflow=hidden;rotatable=0;points=[[0,0.5],[1,0.5]];portConstraint=eastwest;whiteSpace=wrap;html=1;" vertex="1" parent="XJCtLHiwcG__dmZvd9Cn-22">
          <mxGeometry y="109" width="235" height="26" as="geometry" />
        </mxCell>
        <mxCell id="XJCtLHiwcG__dmZvd9Cn-36" value="Usuário" style="swimlane;fontStyle=1;align=center;verticalAlign=top;childLayout=stackLayout;horizontal=1;startSize=26;horizontalStack=0;resizeParent=1;resizeParentMax=0;resizeLast=0;collapsible=1;marginBottom=0;whiteSpace=wrap;html=1;" parent="WIyWlLk6GJQsqaUBKTNV-1" vertex="1">
          <mxGeometry x="-499" y="249" width="200" height="346" as="geometry" />
        </mxCell>
        <mxCell id="XJCtLHiwcG__dmZvd9Cn-37" value="+ id: int" style="text;strokeColor=none;fillColor=none;align=left;verticalAlign=top;spacingLeft=4;spacingRight=4;overflow=hidden;rotatable=0;points=[[0,0.5],[1,0.5]];portConstraint=eastwest;whiteSpace=wrap;html=1;" parent="XJCtLHiwcG__dmZvd9Cn-36" vertex="1">
          <mxGeometry y="26" width="200" height="26" as="geometry" />
        </mxCell>
        <mxCell id="XJCtLHiwcG__dmZvd9Cn-40" value="+ nome: string" style="text;strokeColor=none;fillColor=none;align=left;verticalAlign=top;spacingLeft=4;spacingRight=4;overflow=hidden;rotatable=0;points=[[0,0.5],[1,0.5]];portConstraint=eastwest;whiteSpace=wrap;html=1;" parent="XJCtLHiwcG__dmZvd9Cn-36" vertex="1">
          <mxGeometry y="52" width="200" height="26" as="geometry" />
        </mxCell>
        <mxCell id="XJCtLHiwcG__dmZvd9Cn-41" value="+ cpf: string" style="text;strokeColor=none;fillColor=none;align=left;verticalAlign=top;spacingLeft=4;spacingRight=4;overflow=hidden;rotatable=0;points=[[0,0.5],[1,0.5]];portConstraint=eastwest;whiteSpace=wrap;html=1;" parent="XJCtLHiwcG__dmZvd9Cn-36" vertex="1">
          <mxGeometry y="78" width="200" height="26" as="geometry" />
        </mxCell>
        <mxCell id="XJCtLHiwcG__dmZvd9Cn-43" value="+ endereço: string" style="text;strokeColor=none;fillColor=none;align=left;verticalAlign=top;spacingLeft=4;spacingRight=4;overflow=hidden;rotatable=0;points=[[0,0.5],[1,0.5]];portConstraint=eastwest;whiteSpace=wrap;html=1;" parent="XJCtLHiwcG__dmZvd9Cn-36" vertex="1">
          <mxGeometry y="104" width="200" height="26" as="geometry" />
        </mxCell>
        <mxCell id="q6523NSPzNfPJhVcxAXO-14" value="+ email: string" style="text;strokeColor=none;fillColor=none;align=left;verticalAlign=top;spacingLeft=4;spacingRight=4;overflow=hidden;rotatable=0;points=[[0,0.5],[1,0.5]];portConstraint=eastwest;whiteSpace=wrap;html=1;" parent="XJCtLHiwcG__dmZvd9Cn-36" vertex="1">
          <mxGeometry y="130" width="200" height="26" as="geometry" />
        </mxCell>
        <mxCell id="q6523NSPzNfPJhVcxAXO-15" value="+ telefone: string" style="text;strokeColor=none;fillColor=none;align=left;verticalAlign=top;spacingLeft=4;spacingRight=4;overflow=hidden;rotatable=0;points=[[0,0.5],[1,0.5]];portConstraint=eastwest;whiteSpace=wrap;html=1;" parent="XJCtLHiwcG__dmZvd9Cn-36" vertex="1">
          <mxGeometry y="156" width="200" height="26" as="geometry" />
        </mxCell>
        <mxCell id="XJCtLHiwcG__dmZvd9Cn-42" value="+ saldo: float" style="text;strokeColor=none;fillColor=none;align=left;verticalAlign=top;spacingLeft=4;spacingRight=4;overflow=hidden;rotatable=0;points=[[0,0.5],[1,0.5]];portConstraint=eastwest;whiteSpace=wrap;html=1;" parent="XJCtLHiwcG__dmZvd9Cn-36" vertex="1">
          <mxGeometry y="182" width="200" height="26" as="geometry" />
        </mxCell>
        <mxCell id="XJCtLHiwcG__dmZvd9Cn-38" value="" style="line;strokeWidth=1;fillColor=none;align=left;verticalAlign=middle;spacingTop=-1;spacingLeft=3;spacingRight=3;rotatable=0;labelPosition=right;points=[];portConstraint=eastwest;strokeColor=inherit;" parent="XJCtLHiwcG__dmZvd9Cn-36" vertex="1">
          <mxGeometry y="208" width="200" height="8" as="geometry" />
        </mxCell>
        <mxCell id="HN_7g7VHqVBmz8YVN-a9-0" value="+ cadastrarUsuario(): void" style="text;strokeColor=none;fillColor=none;align=left;verticalAlign=top;spacingLeft=4;spacingRight=4;overflow=hidden;rotatable=0;points=[[0,0.5],[1,0.5]];portConstraint=eastwest;whiteSpace=wrap;html=1;" parent="XJCtLHiwcG__dmZvd9Cn-36" vertex="1">
          <mxGeometry y="216" width="200" height="26" as="geometry" />
        </mxCell>
        <mxCell id="HN_7g7VHqVBmz8YVN-a9-1" value="+ autenticarUsuario(): void" style="text;strokeColor=none;fillColor=none;align=left;verticalAlign=top;spacingLeft=4;spacingRight=4;overflow=hidden;rotatable=0;points=[[0,0.5],[1,0.5]];portConstraint=eastwest;whiteSpace=wrap;html=1;" parent="XJCtLHiwcG__dmZvd9Cn-36" vertex="1">
          <mxGeometry y="242" width="200" height="26" as="geometry" />
        </mxCell>
        <mxCell id="XJCtLHiwcG__dmZvd9Cn-39" value="+ depositarSaldo(): void" style="text;strokeColor=none;fillColor=none;align=left;verticalAlign=top;spacingLeft=4;spacingRight=4;overflow=hidden;rotatable=0;points=[[0,0.5],[1,0.5]];portConstraint=eastwest;whiteSpace=wrap;html=1;" parent="XJCtLHiwcG__dmZvd9Cn-36" vertex="1">
          <mxGeometry y="268" width="200" height="26" as="geometry" />
        </mxCell>
        <mxCell id="KCBv_zXYVOr0lP9MTeKW-21" value="+ atualizarCadastro(): void" style="text;strokeColor=none;fillColor=none;align=left;verticalAlign=top;spacingLeft=4;spacingRight=4;overflow=hidden;rotatable=0;points=[[0,0.5],[1,0.5]];portConstraint=eastwest;whiteSpace=wrap;html=1;" vertex="1" parent="XJCtLHiwcG__dmZvd9Cn-36">
          <mxGeometry y="294" width="200" height="26" as="geometry" />
        </mxCell>
        <mxCell id="q6523NSPzNfPJhVcxAXO-9" value="+ obterGuiaDoIniciante(): void" style="text;strokeColor=none;fillColor=none;align=left;verticalAlign=top;spacingLeft=4;spacingRight=4;overflow=hidden;rotatable=0;points=[[0,0.5],[1,0.5]];portConstraint=eastwest;whiteSpace=wrap;html=1;" parent="XJCtLHiwcG__dmZvd9Cn-36" vertex="1">
          <mxGeometry y="320" width="200" height="26" as="geometry" />
        </mxCell>
        <mxCell id="q6523NSPzNfPJhVcxAXO-40" style="edgeStyle=orthogonalEdgeStyle;rounded=0;orthogonalLoop=1;jettySize=auto;html=1;entryX=0;entryY=0.5;entryDx=0;entryDy=0;endArrow=none;endFill=0;" parent="WIyWlLk6GJQsqaUBKTNV-1" source="XJCtLHiwcG__dmZvd9Cn-46" target="XJCtLHiwcG__dmZvd9Cn-53" edge="1">
          <mxGeometry relative="1" as="geometry" />
        </mxCell>
        <mxCell id="XJCtLHiwcG__dmZvd9Cn-46" value="GrupoDeAções" style="swimlane;fontStyle=1;align=center;verticalAlign=top;childLayout=stackLayout;horizontal=1;startSize=26;horizontalStack=0;resizeParent=1;resizeParentMax=0;resizeLast=0;collapsible=1;marginBottom=0;whiteSpace=wrap;html=1;" parent="WIyWlLk6GJQsqaUBKTNV-1" vertex="1">
          <mxGeometry x="-279" y="560" width="160" height="112" as="geometry" />
        </mxCell>
        <mxCell id="XJCtLHiwcG__dmZvd9Cn-47" value="+ id: int" style="text;strokeColor=none;fillColor=none;align=left;verticalAlign=top;spacingLeft=4;spacingRight=4;overflow=hidden;rotatable=0;points=[[0,0.5],[1,0.5]];portConstraint=eastwest;whiteSpace=wrap;html=1;" parent="XJCtLHiwcG__dmZvd9Cn-46" vertex="1">
          <mxGeometry y="26" width="160" height="26" as="geometry" />
        </mxCell>
        <mxCell id="XJCtLHiwcG__dmZvd9Cn-51" value="+ id_usuário: int" style="text;strokeColor=none;fillColor=none;align=left;verticalAlign=top;spacingLeft=4;spacingRight=4;overflow=hidden;rotatable=0;points=[[0,0.5],[1,0.5]];portConstraint=eastwest;whiteSpace=wrap;html=1;" parent="XJCtLHiwcG__dmZvd9Cn-46" vertex="1">
          <mxGeometry y="52" width="160" height="26" as="geometry" />
        </mxCell>
        <mxCell id="XJCtLHiwcG__dmZvd9Cn-50" value="+ nome: string" style="text;strokeColor=none;fillColor=none;align=left;verticalAlign=top;spacingLeft=4;spacingRight=4;overflow=hidden;rotatable=0;points=[[0,0.5],[1,0.5]];portConstraint=eastwest;whiteSpace=wrap;html=1;" parent="XJCtLHiwcG__dmZvd9Cn-46" vertex="1">
          <mxGeometry y="78" width="160" height="26" as="geometry" />
        </mxCell>
        <mxCell id="XJCtLHiwcG__dmZvd9Cn-48" value="" style="line;strokeWidth=1;fillColor=none;align=left;verticalAlign=middle;spacingTop=-1;spacingLeft=3;spacingRight=3;rotatable=0;labelPosition=right;points=[];portConstraint=eastwest;strokeColor=inherit;" parent="XJCtLHiwcG__dmZvd9Cn-46" vertex="1">
          <mxGeometry y="104" width="160" height="8" as="geometry" />
        </mxCell>
        <mxCell id="XJCtLHiwcG__dmZvd9Cn-53" value="&lt;p style=&quot;margin:0px;margin-top:4px;text-align:center;&quot;&gt;&lt;b&gt;RelaçãoGrupoAção&lt;/b&gt;&lt;/p&gt;&lt;hr size=&quot;1&quot; style=&quot;border-style:solid;&quot;&gt;&lt;p style=&quot;margin:0px;margin-left:4px;&quot;&gt;+ grupoAção: GrupoDeAções&lt;/p&gt;&lt;p style=&quot;margin:0px;margin-left:4px;&quot;&gt;+ Açaõ: Ação&lt;/p&gt;" style="verticalAlign=top;align=left;overflow=fill;html=1;whiteSpace=wrap;" parent="WIyWlLk6GJQsqaUBKTNV-1" vertex="1">
          <mxGeometry x="-149" y="729" width="200" height="90" as="geometry" />
        </mxCell>
        <mxCell id="q6523NSPzNfPJhVcxAXO-41" style="edgeStyle=orthogonalEdgeStyle;rounded=0;orthogonalLoop=1;jettySize=auto;html=1;entryX=1;entryY=0.5;entryDx=0;entryDy=0;endArrow=none;endFill=0;" parent="WIyWlLk6GJQsqaUBKTNV-1" source="q6523NSPzNfPJhVcxAXO-0" target="XJCtLHiwcG__dmZvd9Cn-53" edge="1">
          <mxGeometry relative="1" as="geometry" />
        </mxCell>
        <mxCell id="q6523NSPzNfPJhVcxAXO-0" value="Ação" style="swimlane;fontStyle=1;align=center;verticalAlign=top;childLayout=stackLayout;horizontal=1;startSize=26;horizontalStack=0;resizeParent=1;resizeParentMax=0;resizeLast=0;collapsible=1;marginBottom=0;whiteSpace=wrap;html=1;" parent="WIyWlLk6GJQsqaUBKTNV-1" vertex="1">
          <mxGeometry x="-28" y="560" width="202" height="112" as="geometry" />
        </mxCell>
        <mxCell id="q6523NSPzNfPJhVcxAXO-1" value="+ ativo: Ativo" style="text;strokeColor=none;fillColor=none;align=left;verticalAlign=top;spacingLeft=4;spacingRight=4;overflow=hidden;rotatable=0;points=[[0,0.5],[1,0.5]];portConstraint=eastwest;whiteSpace=wrap;html=1;" parent="q6523NSPzNfPJhVcxAXO-0" vertex="1">
          <mxGeometry y="26" width="202" height="26" as="geometry" />
        </mxCell>
        <mxCell id="q6523NSPzNfPJhVcxAXO-4" value="+ quantidade: int" style="text;strokeColor=none;fillColor=none;align=left;verticalAlign=top;spacingLeft=4;spacingRight=4;overflow=hidden;rotatable=0;points=[[0,0.5],[1,0.5]];portConstraint=eastwest;whiteSpace=wrap;html=1;" parent="q6523NSPzNfPJhVcxAXO-0" vertex="1">
          <mxGeometry y="52" width="202" height="26" as="geometry" />
        </mxCell>
        <mxCell id="q6523NSPzNfPJhVcxAXO-2" value="" style="line;strokeWidth=1;fillColor=none;align=left;verticalAlign=middle;spacingTop=-1;spacingLeft=3;spacingRight=3;rotatable=0;labelPosition=right;points=[];portConstraint=eastwest;strokeColor=inherit;" parent="q6523NSPzNfPJhVcxAXO-0" vertex="1">
          <mxGeometry y="78" width="202" height="8" as="geometry" />
        </mxCell>
        <mxCell id="q6523NSPzNfPJhVcxAXO-3" value="+ transferirAção(id_usuario): void" style="text;strokeColor=none;fillColor=none;align=left;verticalAlign=top;spacingLeft=4;spacingRight=4;overflow=hidden;rotatable=0;points=[[0,0.5],[1,0.5]];portConstraint=eastwest;whiteSpace=wrap;html=1;" parent="q6523NSPzNfPJhVcxAXO-0" vertex="1">
          <mxGeometry y="86" width="202" height="26" as="geometry" />
        </mxCell>
        <mxCell id="q6523NSPzNfPJhVcxAXO-10" value="Alerta" style="swimlane;fontStyle=1;align=center;verticalAlign=top;childLayout=stackLayout;horizontal=1;startSize=26;horizontalStack=0;resizeParent=1;resizeParentMax=0;resizeLast=0;collapsible=1;marginBottom=0;whiteSpace=wrap;html=1;" parent="WIyWlLk6GJQsqaUBKTNV-1" vertex="1">
          <mxGeometry x="-520" y="750" width="230" height="138" as="geometry" />
        </mxCell>
        <mxCell id="q6523NSPzNfPJhVcxAXO-11" value="+ conteudo: string" style="text;strokeColor=none;fillColor=none;align=left;verticalAlign=top;spacingLeft=4;spacingRight=4;overflow=hidden;rotatable=0;points=[[0,0.5],[1,0.5]];portConstraint=eastwest;whiteSpace=wrap;html=1;" parent="q6523NSPzNfPJhVcxAXO-10" vertex="1">
          <mxGeometry y="26" width="230" height="26" as="geometry" />
        </mxCell>
        <mxCell id="q6523NSPzNfPJhVcxAXO-12" value="" style="line;strokeWidth=1;fillColor=none;align=left;verticalAlign=middle;spacingTop=-1;spacingLeft=3;spacingRight=3;rotatable=0;labelPosition=right;points=[];portConstraint=eastwest;strokeColor=inherit;" parent="q6523NSPzNfPJhVcxAXO-10" vertex="1">
          <mxGeometry y="52" width="230" height="8" as="geometry" />
        </mxCell>
        <mxCell id="KCBv_zXYVOr0lP9MTeKW-0" value="+ criarAlerta(): bool" style="text;strokeColor=none;fillColor=none;align=left;verticalAlign=top;spacingLeft=4;spacingRight=4;overflow=hidden;rotatable=0;points=[[0,0.5],[1,0.5]];portConstraint=eastwest;whiteSpace=wrap;html=1;" vertex="1" parent="q6523NSPzNfPJhVcxAXO-10">
          <mxGeometry y="60" width="230" height="26" as="geometry" />
        </mxCell>
        <mxCell id="q6523NSPzNfPJhVcxAXO-54" value="+ AlertarCotação(): bool" style="text;strokeColor=none;fillColor=none;align=left;verticalAlign=top;spacingLeft=4;spacingRight=4;overflow=hidden;rotatable=0;points=[[0,0.5],[1,0.5]];portConstraint=eastwest;whiteSpace=wrap;html=1;" parent="q6523NSPzNfPJhVcxAXO-10" vertex="1">
          <mxGeometry y="86" width="230" height="26" as="geometry" />
        </mxCell>
        <mxCell id="KCBv_zXYVOr0lP9MTeKW-14" value="+ AlertarUsuário(): bool" style="text;strokeColor=none;fillColor=none;align=left;verticalAlign=top;spacingLeft=4;spacingRight=4;overflow=hidden;rotatable=0;points=[[0,0.5],[1,0.5]];portConstraint=eastwest;whiteSpace=wrap;html=1;" vertex="1" parent="q6523NSPzNfPJhVcxAXO-10">
          <mxGeometry y="112" width="230" height="26" as="geometry" />
        </mxCell>
        <mxCell id="q6523NSPzNfPJhVcxAXO-16" value="" style="endArrow=none;endFill=0;endSize=24;html=1;rounded=0;entryX=1;entryY=0.5;entryDx=0;entryDy=0;exitX=0;exitY=0.5;exitDx=0;exitDy=0;" parent="WIyWlLk6GJQsqaUBKTNV-1" source="XJCtLHiwcG__dmZvd9Cn-26" target="XJCtLHiwcG__dmZvd9Cn-41" edge="1">
          <mxGeometry width="160" relative="1" as="geometry">
            <mxPoint x="-279" y="489" as="sourcePoint" />
            <mxPoint x="-119" y="489" as="targetPoint" />
            <Array as="points">
              <mxPoint x="-239" y="329" />
            </Array>
          </mxGeometry>
        </mxCell>
        <mxCell id="q6523NSPzNfPJhVcxAXO-19" value="1" style="text;html=1;align=center;verticalAlign=middle;whiteSpace=wrap;rounded=0;" parent="WIyWlLk6GJQsqaUBKTNV-1" vertex="1">
          <mxGeometry x="-319" y="311" width="60" height="30" as="geometry" />
        </mxCell>
        <mxCell id="q6523NSPzNfPJhVcxAXO-20" value="1" style="text;html=1;align=center;verticalAlign=middle;whiteSpace=wrap;rounded=0;" parent="WIyWlLk6GJQsqaUBKTNV-1" vertex="1">
          <mxGeometry x="-179" y="289" width="60" height="30" as="geometry" />
        </mxCell>
        <mxCell id="q6523NSPzNfPJhVcxAXO-21" value="" style="endArrow=none;endFill=0;endSize=24;html=1;rounded=0;entryX=1;entryY=0.5;entryDx=0;entryDy=0;exitX=0;exitY=0.5;exitDx=0;exitDy=0;" parent="WIyWlLk6GJQsqaUBKTNV-1" source="XJCtLHiwcG__dmZvd9Cn-9" target="XJCtLHiwcG__dmZvd9Cn-26" edge="1">
          <mxGeometry width="160" relative="1" as="geometry">
            <mxPoint x="201" y="399" as="sourcePoint" />
            <mxPoint x="41" y="431" as="targetPoint" />
            <Array as="points" />
          </mxGeometry>
        </mxCell>
        <mxCell id="q6523NSPzNfPJhVcxAXO-22" value="1" style="text;html=1;align=center;verticalAlign=middle;whiteSpace=wrap;rounded=0;" parent="WIyWlLk6GJQsqaUBKTNV-1" vertex="1">
          <mxGeometry x="83" y="275" width="60" height="30" as="geometry" />
        </mxCell>
        <mxCell id="q6523NSPzNfPJhVcxAXO-23" value="&lt;font style=&quot;font-size: 12px;&quot;&gt;0...n&lt;/font&gt;" style="text;html=1;align=center;verticalAlign=middle;whiteSpace=wrap;rounded=0;" parent="WIyWlLk6GJQsqaUBKTNV-1" vertex="1">
          <mxGeometry x="161" y="289" width="60" height="30" as="geometry" />
        </mxCell>
        <mxCell id="q6523NSPzNfPJhVcxAXO-25" value="&lt;font style=&quot;font-size: 20px;&quot;&gt;0...n&lt;/font&gt;" style="text;html=1;align=center;verticalAlign=middle;whiteSpace=wrap;rounded=0;" parent="WIyWlLk6GJQsqaUBKTNV-1" vertex="1">
          <mxGeometry x="-249" y="525" width="60" height="30" as="geometry" />
        </mxCell>
        <mxCell id="q6523NSPzNfPJhVcxAXO-29" style="edgeStyle=orthogonalEdgeStyle;rounded=0;orthogonalLoop=1;jettySize=auto;html=1;exitX=1;exitY=0.5;exitDx=0;exitDy=0;entryX=0;entryY=0.5;entryDx=0;entryDy=0;endArrow=none;endFill=0;" parent="WIyWlLk6GJQsqaUBKTNV-1" source="q6523NSPzNfPJhVcxAXO-4" target="XJCtLHiwcG__dmZvd9Cn-5" edge="1">
          <mxGeometry relative="1" as="geometry" />
        </mxCell>
        <mxCell id="q6523NSPzNfPJhVcxAXO-30" value="1" style="text;html=1;align=center;verticalAlign=middle;whiteSpace=wrap;rounded=0;" parent="WIyWlLk6GJQsqaUBKTNV-1" vertex="1">
          <mxGeometry x="363" y="503" width="60" height="30" as="geometry" />
        </mxCell>
        <mxCell id="q6523NSPzNfPJhVcxAXO-31" value="N" style="text;html=1;align=center;verticalAlign=middle;whiteSpace=wrap;rounded=0;" parent="WIyWlLk6GJQsqaUBKTNV-1" vertex="1">
          <mxGeometry x="157" y="598" width="60" height="30" as="geometry" />
        </mxCell>
        <mxCell id="q6523NSPzNfPJhVcxAXO-42" value="1" style="text;html=1;align=center;verticalAlign=middle;whiteSpace=wrap;rounded=0;" parent="WIyWlLk6GJQsqaUBKTNV-1" vertex="1">
          <mxGeometry x="-253" y="698" width="60" height="30" as="geometry" />
        </mxCell>
        <mxCell id="q6523NSPzNfPJhVcxAXO-43" value="1" style="text;html=1;align=center;verticalAlign=middle;whiteSpace=wrap;rounded=0;" parent="WIyWlLk6GJQsqaUBKTNV-1" vertex="1">
          <mxGeometry x="-207" y="772" width="60" height="30" as="geometry" />
        </mxCell>
        <mxCell id="q6523NSPzNfPJhVcxAXO-44" value="1" style="text;html=1;align=center;verticalAlign=middle;whiteSpace=wrap;rounded=0;" parent="WIyWlLk6GJQsqaUBKTNV-1" vertex="1">
          <mxGeometry x="67" y="672" width="60" height="30" as="geometry" />
        </mxCell>
        <mxCell id="q6523NSPzNfPJhVcxAXO-45" value="1" style="text;html=1;align=center;verticalAlign=middle;whiteSpace=wrap;rounded=0;" parent="WIyWlLk6GJQsqaUBKTNV-1" vertex="1">
          <mxGeometry x="43" y="772" width="60" height="30" as="geometry" />
        </mxCell>
        <mxCell id="q6523NSPzNfPJhVcxAXO-49" value="" style="endArrow=none;endFill=0;endSize=24;html=1;rounded=0;entryX=0.5;entryY=0;entryDx=0;entryDy=0;exitX=0.494;exitY=1.154;exitDx=0;exitDy=0;exitPerimeter=0;" parent="WIyWlLk6GJQsqaUBKTNV-1" target="q6523NSPzNfPJhVcxAXO-10" edge="1" source="q6523NSPzNfPJhVcxAXO-9">
          <mxGeometry width="160" relative="1" as="geometry">
            <mxPoint x="-464" y="620" as="sourcePoint" />
            <mxPoint x="-570" y="596.46" as="targetPoint" />
            <Array as="points" />
          </mxGeometry>
        </mxCell>
        <mxCell id="q6523NSPzNfPJhVcxAXO-51" value="" style="endArrow=none;endFill=0;endSize=24;html=1;rounded=0;entryX=0.5;entryY=0;entryDx=0;entryDy=0;exitX=0.396;exitY=1.069;exitDx=0;exitDy=0;exitPerimeter=0;" parent="WIyWlLk6GJQsqaUBKTNV-1" source="KCBv_zXYVOr0lP9MTeKW-8" target="XJCtLHiwcG__dmZvd9Cn-46" edge="1">
          <mxGeometry width="160" relative="1" as="geometry">
            <mxPoint x="-267" y="505" as="sourcePoint" />
            <mxPoint x="-107" y="505" as="targetPoint" />
          </mxGeometry>
        </mxCell>
        <mxCell id="q6523NSPzNfPJhVcxAXO-56" value="OperaçãoAutomatica" style="swimlane;fontStyle=1;align=center;verticalAlign=top;childLayout=stackLayout;horizontal=1;startSize=26;horizontalStack=0;resizeParent=1;resizeParentMax=0;resizeLast=0;collapsible=1;marginBottom=0;whiteSpace=wrap;html=1;" parent="WIyWlLk6GJQsqaUBKTNV-1" vertex="1">
          <mxGeometry x="94" y="813" width="214" height="268" as="geometry" />
        </mxCell>
        <mxCell id="q6523NSPzNfPJhVcxAXO-57" value="+ ação: Ação" style="text;strokeColor=none;fillColor=none;align=left;verticalAlign=top;spacingLeft=4;spacingRight=4;overflow=hidden;rotatable=0;points=[[0,0.5],[1,0.5]];portConstraint=eastwest;whiteSpace=wrap;html=1;" parent="q6523NSPzNfPJhVcxAXO-56" vertex="1">
          <mxGeometry y="26" width="214" height="26" as="geometry" />
        </mxCell>
        <mxCell id="q6523NSPzNfPJhVcxAXO-61" value="+ éCompra: bool" style="text;strokeColor=none;fillColor=none;align=left;verticalAlign=top;spacingLeft=4;spacingRight=4;overflow=hidden;rotatable=0;points=[[0,0.5],[1,0.5]];portConstraint=eastwest;whiteSpace=wrap;html=1;" parent="q6523NSPzNfPJhVcxAXO-56" vertex="1">
          <mxGeometry y="52" width="214" height="26" as="geometry" />
        </mxCell>
        <mxCell id="q6523NSPzNfPJhVcxAXO-62" value="+ qtd: int" style="text;strokeColor=none;fillColor=none;align=left;verticalAlign=top;spacingLeft=4;spacingRight=4;overflow=hidden;rotatable=0;points=[[0,0.5],[1,0.5]];portConstraint=eastwest;whiteSpace=wrap;html=1;" parent="q6523NSPzNfPJhVcxAXO-56" vertex="1">
          <mxGeometry y="78" width="214" height="26" as="geometry" />
        </mxCell>
        <mxCell id="q6523NSPzNfPJhVcxAXO-63" value="+ valor: float" style="text;strokeColor=none;fillColor=none;align=left;verticalAlign=top;spacingLeft=4;spacingRight=4;overflow=hidden;rotatable=0;points=[[0,0.5],[1,0.5]];portConstraint=eastwest;whiteSpace=wrap;html=1;" parent="q6523NSPzNfPJhVcxAXO-56" vertex="1">
          <mxGeometry y="104" width="214" height="26" as="geometry" />
        </mxCell>
        <mxCell id="q6523NSPzNfPJhVcxAXO-58" value="" style="line;strokeWidth=1;fillColor=none;align=left;verticalAlign=middle;spacingTop=-1;spacingLeft=3;spacingRight=3;rotatable=0;labelPosition=right;points=[];portConstraint=eastwest;strokeColor=inherit;" parent="q6523NSPzNfPJhVcxAXO-56" vertex="1">
          <mxGeometry y="130" width="214" height="8" as="geometry" />
        </mxCell>
        <mxCell id="q6523NSPzNfPJhVcxAXO-59" value="+ gatilho(valor): void" style="text;strokeColor=none;fillColor=none;align=left;verticalAlign=top;spacingLeft=4;spacingRight=4;overflow=hidden;rotatable=0;points=[[0,0.5],[1,0.5]];portConstraint=eastwest;whiteSpace=wrap;html=1;" parent="q6523NSPzNfPJhVcxAXO-56" vertex="1">
          <mxGeometry y="138" width="214" height="26" as="geometry" />
        </mxCell>
        <mxCell id="q6523NSPzNfPJhVcxAXO-64" value="+ gatilho(qtd): void" style="text;strokeColor=none;fillColor=none;align=left;verticalAlign=top;spacingLeft=4;spacingRight=4;overflow=hidden;rotatable=0;points=[[0,0.5],[1,0.5]];portConstraint=eastwest;whiteSpace=wrap;html=1;" parent="q6523NSPzNfPJhVcxAXO-56" vertex="1">
          <mxGeometry y="164" width="214" height="26" as="geometry" />
        </mxCell>
        <mxCell id="KCBv_zXYVOr0lP9MTeKW-11" value="+ negociarRapidamente(): bool&amp;nbsp;" style="text;strokeColor=none;fillColor=none;align=left;verticalAlign=top;spacingLeft=4;spacingRight=4;overflow=hidden;rotatable=0;points=[[0,0.5],[1,0.5]];portConstraint=eastwest;whiteSpace=wrap;html=1;" vertex="1" parent="q6523NSPzNfPJhVcxAXO-56">
          <mxGeometry y="190" width="214" height="26" as="geometry" />
        </mxCell>
        <mxCell id="KCBv_zXYVOr0lP9MTeKW-12" value="+ enviarFormulario(): bool&amp;nbsp;" style="text;strokeColor=none;fillColor=none;align=left;verticalAlign=top;spacingLeft=4;spacingRight=4;overflow=hidden;rotatable=0;points=[[0,0.5],[1,0.5]];portConstraint=eastwest;whiteSpace=wrap;html=1;" vertex="1" parent="q6523NSPzNfPJhVcxAXO-56">
          <mxGeometry y="216" width="214" height="26" as="geometry" />
        </mxCell>
        <mxCell id="KCBv_zXYVOr0lP9MTeKW-13" value="+ executarOrdem(): bool&amp;nbsp;" style="text;strokeColor=none;fillColor=none;align=left;verticalAlign=top;spacingLeft=4;spacingRight=4;overflow=hidden;rotatable=0;points=[[0,0.5],[1,0.5]];portConstraint=eastwest;whiteSpace=wrap;html=1;" vertex="1" parent="q6523NSPzNfPJhVcxAXO-56">
          <mxGeometry y="242" width="214" height="26" as="geometry" />
        </mxCell>
        <mxCell id="q6523NSPzNfPJhVcxAXO-65" value="" style="endArrow=none;endFill=0;endSize=24;html=1;rounded=0;entryX=0.5;entryY=0;entryDx=0;entryDy=0;exitX=1.01;exitY=1.079;exitDx=0;exitDy=0;exitPerimeter=0;" parent="WIyWlLk6GJQsqaUBKTNV-1" source="q6523NSPzNfPJhVcxAXO-3" target="q6523NSPzNfPJhVcxAXO-56" edge="1">
          <mxGeometry width="160" relative="1" as="geometry">
            <mxPoint x="242" y="729" as="sourcePoint" />
            <mxPoint x="67" y="855" as="targetPoint" />
          </mxGeometry>
        </mxCell>
        <mxCell id="KCBv_zXYVOr0lP9MTeKW-23" value="1" style="text;html=1;align=center;verticalAlign=middle;whiteSpace=wrap;rounded=0;" vertex="1" parent="WIyWlLk6GJQsqaUBKTNV-1">
          <mxGeometry x="-113" y="404" width="60" height="30" as="geometry" />
        </mxCell>
        <mxCell id="KCBv_zXYVOr0lP9MTeKW-24" value="1" style="text;html=1;align=center;verticalAlign=middle;whiteSpace=wrap;rounded=0;" vertex="1" parent="WIyWlLk6GJQsqaUBKTNV-1">
          <mxGeometry x="443" y="571" width="60" height="30" as="geometry" />
        </mxCell>
        <mxCell id="KCBv_zXYVOr0lP9MTeKW-25" value="1" style="text;html=1;align=center;verticalAlign=middle;whiteSpace=wrap;rounded=0;" vertex="1" parent="WIyWlLk6GJQsqaUBKTNV-1">
          <mxGeometry x="275" y="642" width="60" height="30" as="geometry" />
        </mxCell>
        <mxCell id="KCBv_zXYVOr0lP9MTeKW-26" value="N" style="text;html=1;align=center;verticalAlign=middle;whiteSpace=wrap;rounded=0;" vertex="1" parent="WIyWlLk6GJQsqaUBKTNV-1">
          <mxGeometry x="157" y="665" width="60" height="30" as="geometry" />
        </mxCell>
        <mxCell id="KCBv_zXYVOr0lP9MTeKW-27" value="N" style="text;html=1;align=center;verticalAlign=middle;whiteSpace=wrap;rounded=0;" vertex="1" parent="WIyWlLk6GJQsqaUBKTNV-1">
          <mxGeometry x="208" y="783" width="60" height="30" as="geometry" />
        </mxCell>
        <mxCell id="KCBv_zXYVOr0lP9MTeKW-28" value="N" style="text;html=1;align=center;verticalAlign=middle;resizable=0;points=[];autosize=1;strokeColor=none;fillColor=none;" vertex="1" parent="WIyWlLk6GJQsqaUBKTNV-1">
          <mxGeometry x="-385" y="597" width="27" height="26" as="geometry" />
        </mxCell>
        <mxCell id="KCBv_zXYVOr0lP9MTeKW-29" value="N" style="text;html=1;align=center;verticalAlign=middle;resizable=0;points=[];autosize=1;strokeColor=none;fillColor=none;" vertex="1" parent="WIyWlLk6GJQsqaUBKTNV-1">
          <mxGeometry x="-385" y="717" width="27" height="26" as="geometry" />
        </mxCell>
      </root>
    </mxGraphModel>
  </diagram>
</mxfile>
